<svg aria-hidden="true" style="position: absolute; width: 0; height: 0; overflow: hidden;" version="1.1" xmlns="http://www.w3.org/2000/svg" xmlns:xlink="http://www.w3.org/1999/xlink">
<defs>
<symbol id="icon-envelope" viewBox="0 0 38 32">
<title>envelope</title>
<path d="M20.060 0.413c-0.58-0.533-1.539-0.533-2.119 0l-17.688 10.671c-0.15 0.091-0.242 0.253-0.242 0.428v18.922c0 0.863 0.706 1.566 1.574 1.566h34.83c0.868 0 1.574-0.703 1.574-1.566v-18.922c0-0.175-0.092-0.337-0.242-0.428l-17.687-10.671zM18.504 1.24c0.035-0.021 0.066-0.046 0.095-0.074 0.108-0.107 0.25-0.166 0.401-0.166s0.293 0.059 0.4 0.166c0.029 0.028 0.061 0.053 0.095 0.074l17.227 10.394-12.478 7.436c-0.237 0.142-0.315 0.448-0.174 0.686 0.094 0.157 0.26 0.244 0.43 0.244 0.087 0 0.175-0.022 0.255-0.070l12.245-7.29v17.757l-16.935-11.266c-0.538-0.429-1.594-0.429-2.096-0.025l-16.969 11.286v-17.752l12.244 7.29c0.080 0.048 0.169 0.070 0.256 0.070 0.17 0 0.336-0.087 0.43-0.244 0.141-0.237 0.063-0.544-0.174-0.686l-12.479-7.436 17.227-10.394zM36.090 31h-34.188l16.656-11.086c0.173-0.138 0.712-0.137 0.919 0.025l16.613 11.061zM6.5 13h25c0.276 0 0.5-0.224 0.5-0.5s-0.224-0.5-0.5-0.5h-25c-0.276 0-0.5 0.224-0.5 0.5s0.224 0.5 0.5 0.5z"></path>
</symbol>
<symbol id="icon-mail-envelope-open" viewBox="0 0 32 32">
<title>mail-envelope-open</title>
<path d="M16.818 21.991l-1.697 0.009h3.378l0.020-0.018-0.099 0.001 6.579-5.883v-8.091c0-0.557-0.455-1.009-1-1.009h-15c-0.552 0-1 0.444-1 1.002v8.198l6.551 5.78 2.267 0.011zM13.091 6l3.409-3 3.409 3h4.093c1.107 0 1.997 0.895 1.997 2v3.36l3 2.64v14.006c0 1.1-0.897 1.994-2.004 1.994h-20.993c-1.114 0-2.004-0.893-2.004-1.994v-14.006l3-2.64v-3.36c0-1.112 0.894-2 1.997-2h4.093zM18.428 6l-1.928-1.7-1.928 1.7h3.856zM26 12.677v2.656l1.5-1.333-1.5-1.323zM7 15.333v-2.656l-1.5 1.323 1.5 1.333zM13.5 23l-7 6h20l-7-6h-6zM27.685 28.725v0 0c0.194-0.183 0.315-0.442 0.315-0.725v-13l-8 7.017 7.685 6.708zM5.315 28.725l7.685-6.708-8-7.017v13c0 0.283 0.121 0.542 0.315 0.725v0 0z"></path>
</symbol>
<symbol id="icon-mail-envelope-closed" viewBox="0 0 32 32">
<title>mail-envelope-closed</title>
<path d="M5.315 9.274l7.735 6.726-7.737 6.728c-0.194-0.184-0.313-0.445-0.313-0.735v-11.986c0-0.289 0.121-0.549 0.315-0.733zM27.687 9.272c0.194 0.184 0.313 0.445 0.313 0.735v11.986c0 0.289-0.121 0.549-0.315 0.733l-7.735-6.726 7.737-6.728zM19.202 16.651l7.298 6.349h-20l7.298-6.349 2.702 2.349 2.702-2.349zM6.004 8c-1.107 0-2.004 0.895-2.004 1.994v12.012c0 1.101 0.89 1.994 2.004 1.994h20.993c1.107 0 2.004-0.895 2.004-1.994v-12.012c0-1.101-0.89-1.994-2.004-1.994h-20.993zM16.5 17.7l-10-8.7h20l-10 8.7z"></path>
</symbol>
<symbol id="icon-facebook" viewBox="0 0 32 32">
<title>facebook</title>
<path d="M19 6h5v-6h-5c-3.86 0-7 3.14-7 7v3h-4v6h4v16h6v-16h5l1-6h-6v-3c0-0.542 0.458-1 1-1z"></path>
</symbol>
<symbol id="icon-facebook2" viewBox="0 0 32 32">
<title>facebook2</title>
<path d="M29 0h-26c-1.65 0-3 1.35-3 3v26c0 1.65 1.35 3 3 3h13v-14h-4v-4h4v-2c0-3.306 2.694-6 6-6h4v4h-4c-1.1 0-2 0.9-2 2v2h6l-1 4h-5v14h9c1.65 0 3-1.35 3-3v-26c0-1.65-1.35-3-3-3z"></path>
</symbol>
<symbol id="icon-instagram" viewBox="0 0 32 32">
<title>instagram</title>
<path d="M16 2.881c4.275 0 4.781 0.019 6.462 0.094 1.563 0.069 2.406 0.331 2.969 0.55 0.744 0.288 1.281 0.638 1.837 1.194 0.563 0.563 0.906 1.094 1.2 1.838 0.219 0.563 0.481 1.412 0.55 2.969 0.075 1.688 0.094 2.194 0.094 6.463s-0.019 4.781-0.094 6.463c-0.069 1.563-0.331 2.406-0.55 2.969-0.288 0.744-0.637 1.281-1.194 1.837-0.563 0.563-1.094 0.906-1.837 1.2-0.563 0.219-1.413 0.481-2.969 0.55-1.688 0.075-2.194 0.094-6.463 0.094s-4.781-0.019-6.463-0.094c-1.563-0.069-2.406-0.331-2.969-0.55-0.744-0.288-1.281-0.637-1.838-1.194-0.563-0.563-0.906-1.094-1.2-1.837-0.219-0.563-0.481-1.413-0.55-2.969-0.075-1.688-0.094-2.194-0.094-6.463s0.019-4.781 0.094-6.463c0.069-1.563 0.331-2.406 0.55-2.969 0.288-0.744 0.638-1.281 1.194-1.838 0.563-0.563 1.094-0.906 1.838-1.2 0.563-0.219 1.412-0.481 2.969-0.55 1.681-0.075 2.188-0.094 6.463-0.094zM16 0c-4.344 0-4.887 0.019-6.594 0.094-1.7 0.075-2.869 0.35-3.881 0.744-1.056 0.412-1.95 0.956-2.837 1.85-0.894 0.888-1.438 1.781-1.85 2.831-0.394 1.019-0.669 2.181-0.744 3.881-0.075 1.713-0.094 2.256-0.094 6.6s0.019 4.887 0.094 6.594c0.075 1.7 0.35 2.869 0.744 3.881 0.413 1.056 0.956 1.95 1.85 2.837 0.887 0.887 1.781 1.438 2.831 1.844 1.019 0.394 2.181 0.669 3.881 0.744 1.706 0.075 2.25 0.094 6.594 0.094s4.888-0.019 6.594-0.094c1.7-0.075 2.869-0.35 3.881-0.744 1.050-0.406 1.944-0.956 2.831-1.844s1.438-1.781 1.844-2.831c0.394-1.019 0.669-2.181 0.744-3.881 0.075-1.706 0.094-2.25 0.094-6.594s-0.019-4.887-0.094-6.594c-0.075-1.7-0.35-2.869-0.744-3.881-0.394-1.063-0.938-1.956-1.831-2.844-0.887-0.887-1.781-1.438-2.831-1.844-1.019-0.394-2.181-0.669-3.881-0.744-1.712-0.081-2.256-0.1-6.6-0.1v0z"></path>
<path d="M16 7.781c-4.537 0-8.219 3.681-8.219 8.219s3.681 8.219 8.219 8.219 8.219-3.681 8.219-8.219c0-4.537-3.681-8.219-8.219-8.219zM16 21.331c-2.944 0-5.331-2.387-5.331-5.331s2.387-5.331 5.331-5.331c2.944 0 5.331 2.387 5.331 5.331s-2.387 5.331-5.331 5.331z"></path>
<path d="M26.462 7.456c0 1.060-0.859 1.919-1.919 1.919s-1.919-0.859-1.919-1.919c0-1.060 0.859-1.919 1.919-1.919s1.919 0.859 1.919 1.919z"></path>
</symbol>
</defs>
</svg>
